<svg width="19" height="20" viewBox="0 0 19 20" fill="none" xmlns="http://www.w3.org/2000/svg">
<path d="M16.7097 8.0925L16.7097 8.09246L5.03159 1.26077C5.0312 1.26055 5.03081 1.26032 5.03041 1.26009C4.66209 1.04771 4.2443 0.936105 3.81912 0.936525C3.39348 0.936945 2.97547 1.04962 2.60728 1.26317C2.23909 1.47672 1.93373 1.7836 1.72201 2.15285C1.51028 2.5221 1.39969 2.94065 1.40139 3.36629L1.40139 3.36828H1.40139V17.0345V17.0365C1.39969 17.4622 1.51028 17.8807 1.72201 18.25M16.7097 8.0925L1.72201 18.25M16.7097 8.0925L16.7156 8.09589C17.0881 8.30697 17.3979 8.61307 17.6134 8.98296C17.829 9.35285 17.9425 9.7733 17.9425 10.2014C17.9425 10.6295 17.829 11.05 17.6134 11.4199C17.3979 11.7897 17.0881 12.0958 16.7156 12.3069L16.7156 12.3069L16.7097 12.3104L5.03159 19.142C5.03121 19.1423 5.03083 19.1425 5.03044 19.1427M16.7097 8.0925L5.03044 19.1427M1.72201 18.25C1.93373 18.6192 2.23909 18.9261 2.60728 19.1396C2.97547 19.3532 3.39348 19.4659 3.81912 19.4663C4.24431 19.4667 4.66211 19.3551 5.03044 19.1427M1.72201 18.25L5.03044 19.1427" fill="white" stroke="white"/>
</svg>
